# xmcd CD database file
#
# Track frame offsets:
#	150
#	10662
#	22587
#	34450
#	46612
#	62050
#	72437
#	84662
#	96037
#	108587
#	119487
#	136337
#
# Disc length: 1960 seconds
#
# Revision: 1
# Processed by: cddbd v1.5.2PL0 Copyright (c) Steve Scherf et al.
# Submitted via: CDex 1.51
#
DISCID=9707a60c
DTITLE=Freddie Cole - Waiter, Ask The Man To Play The Blues
DYEAR=1964
DGENRE=Jazz
TTITLE0=Waiter, Ask The Man To Play The Blues
TTITLE1=Black Night
TTITLE2=Rain Is Such A Lonesome Sound
TTITLE3=Bye Bye Baby
TTITLE4=Just A Dream
TTITLE5=Muddy Water Blues
TTITLE6=Black Coffee
TTITLE7=The Joke Is On Me
TTITLE8=I Wonder
TTITLE9=This Life I'm Living
TTITLE10=Blues Before Sunrise
TTITLE11=I'm All Alone
EXTD=YEAR: 1964
EXTT0=
EXTT1=
EXTT2=
EXTT3=
EXTT4=
EXTT5=
EXTT6=
EXTT7=
EXTT8=
EXTT9=
EXTT10=
EXTT11=
PLAYORDER=
